# xmcd
#
# Track frame offsets:
#	150
#	14212
#	24750
#	35655
#	49665
#	63472
#	77437
#	90995
#	102570
#	115350
#	128060
#	140757
#	154005
#	166260
#	176792
#	188652
#	200650
#	212995
#	223813
#	236860
#	251275
#	277940
#	296257
#	309812
#	327777
#
# Disc length: 4628 seconds
#
# Revision: 1
# Processed by: cddbd v1.5.2PL0 Copyright (c) Steve Scherf et al.
# Submitted via: audiograbber 1.83.01
#
DISCID=65121219
DTITLE=Otis Rush - I Can't Quit The Blues
DYEAR=2010
DGENRE=Blues
TTITLE0=I Can't Quit You Baby
TTITLE1=Sit Down Baby
TTITLE2=Violent Love
TTITLE3=My Love Will Never Die
TTITLE4=Groaning The Blues
TTITLE5=If You Were Mine
TTITLE6=Love That Woman
TTITLE7=Jump Sister Bessie
TTITLE8=Three Times A Fool
TTITLE9=She's A Good'un
TTITLE10=It Takes Time
TTITLE11=Checking On My Baby
TTITLE12=Double Trouble
TTITLE13=Keep On Loving Me Baby
TTITLE14=All Your Love (I Miss Loving)
TTITLE15=My Baby's A Good'un
TTITLE16=So Close
TTITLE17=I'm Satisfied
TTITLE18=All All Your Love ( I Miss Loving)
TTITLE19=So Many Roads
TTITLE20=It's So Hard For Me To Believe Baby
TTITLE21=Maybe The Last Time
TTITLE22=I Feel Good
TTITLE23=Otis' Blues
TTITLE24=Goin' Down Slow
EXTD=
EXTT0=
EXTT1=
EXTT2=
EXTT3=
EXTT4=
EXTT5=
EXTT6=
EXTT7=
EXTT8=
EXTT9=
EXTT10=
EXTT11=
EXTT12=
EXTT13=
EXTT14=
EXTT15=
EXTT16=
EXTT17=
EXTT18=
EXTT19=
EXTT20=
EXTT21=
EXTT22=
EXTT23=
EXTT24=
PLAYORDER=
